<?xml version="1.0" standalone="no"?><!DOCTYPE svg PUBLIC "-//W3C//DTD SVG 1.1//EN" "http://www.w3.org/Graphics/SVG/1.1/DTD/svg11.dtd"><svg t="1736759389783" class="icon" viewBox="0 0 1024 1024" version="1.1" xmlns="http://www.w3.org/2000/svg" p-id="8332" xmlns:xlink="http://www.w3.org/1999/xlink" width="200" height="200"><path d="M555.136 136.448q16.768-33.344 44.16-54.912 48.384-37.952 125.12-35.008 34.304 0.576 56.128 28.224 21.76 27.648 14.144 62.08-9.792 47.296-32.768 79.872 18.112 7.552 33.92 18.304 87.872 59.392 124.416 165.248 46.72 135.552-22.784 286.976-53.888 117.44-187.52 196.864-85.888 50.944-179.392 74.624a42.688 42.688 0 0 1-27.008-2.048l-9.024-3.84q-173.952-72.64-296.832-184.192-102.08-92.544-111.488-236.8-10.048-153.92 97.024-273.792 83.2-93.12 227.2-87.424 30.208 1.216 59.136 6.016 3.776-16.832 1.088-27.52-3.2-12.8-29.376-20.928-8.448-2.688-12.8-4.928A42.688 42.688 0 0 1 464.768 46.08l2.048 0.64q71.808 22.528 86.592 81.536 0.96 4.032 1.728 8.192z m156.16-17.792l0.128-0.32-0.064 0.32zM622.336 198.912q36.096-1.024 55.936-16.512 20.096-15.872 29.952-50.688-35.968 1.088-56 16.768-20.096 15.808-29.888 50.432z" p-id="8333" fill="#4D4D4D"></path></svg>